<svg width="177" height="38" viewBox="0 0 177 38" fill="none" xmlns="http://www.w3.org/2000/svg">
<path d="M20.52 3.736L19.704 9.35199H7.992V17.32H18.216V22.84H7.992V31.336H20.52V37H0.119995V3.736H20.52Z" fill="#141414"/>
<path d="M47.1521 1.38399V37H40.4321L40.0481 34.024C38.2561 36.552 35.8401 37.816 32.8001 37.816C29.6321 37.816 27.2161 36.6 25.5521 34.168C23.9201 31.736 23.1041 28.408 23.1041 24.184C23.1041 21.592 23.5361 19.272 24.4001 17.224C25.2641 15.176 26.4801 13.576 28.0481 12.424C29.6481 11.272 31.4721 10.696 33.5201 10.696C35.9521 10.696 37.9681 11.496 39.5681 13.096V0.567993L47.1521 1.38399ZM35.1521 32.248C36.9121 32.248 38.3841 31.288 39.5681 29.368V18.376C38.9601 17.64 38.3361 17.096 37.6961 16.744C37.0881 16.392 36.3841 16.216 35.5841 16.216C34.1761 16.216 33.0561 16.872 32.2241 18.184C31.3921 19.496 30.9761 21.512 30.9761 24.232C30.9761 27.208 31.3281 29.288 32.0321 30.472C32.7681 31.656 33.8081 32.248 35.1521 32.248Z" fill="#141414"/>
<path d="M74.5894 37H68.0134L67.6774 33.784C65.8214 36.472 63.2454 37.816 59.9494 37.816C57.6134 37.816 55.8374 37.112 54.6214 35.704C53.4374 34.296 52.8454 32.328 52.8454 29.8V11.512H60.4294V28.84C60.4294 30.088 60.6214 30.968 61.0054 31.48C61.4214 31.96 62.0454 32.2 62.8774 32.2C64.4774 32.2 65.8534 31.208 67.0054 29.224V11.512H74.5894V37Z" fill="#141414"/>
<path d="M100.81 29.608C100.81 30.568 100.938 31.272 101.194 31.72C101.482 32.168 101.93 32.504 102.538 32.728L100.954 37.672C99.3861 37.544 98.1061 37.208 97.1141 36.664C96.1221 36.088 95.3541 35.192 94.8101 33.976C93.1461 36.536 90.5861 37.816 87.1301 37.816C84.6021 37.816 82.5861 37.08 81.0821 35.608C79.5781 34.136 78.8261 32.216 78.8261 29.848C78.8261 27.064 79.8501 24.936 81.8981 23.464C83.9461 21.992 86.9061 21.256 90.7781 21.256H93.3701V20.152C93.3701 18.648 93.0501 17.624 92.4101 17.08C91.7701 16.504 90.6501 16.216 89.0501 16.216C88.2181 16.216 87.2101 16.344 86.0261 16.6C84.8421 16.824 83.6261 17.144 82.3781 17.56L80.6501 12.568C82.2501 11.96 83.8821 11.496 85.5461 11.176C87.2421 10.856 88.8101 10.696 90.2501 10.696C93.8981 10.696 96.5701 11.448 98.2661 12.952C99.9621 14.456 100.81 16.712 100.81 19.72V29.608ZM89.3381 32.392C91.0661 32.392 92.4101 31.576 93.3701 29.944V25.432H91.4981C89.7701 25.432 88.4741 25.736 87.6101 26.344C86.7781 26.952 86.3621 27.896 86.3621 29.176C86.3621 30.2 86.6181 31 87.1301 31.576C87.6741 32.12 88.4101 32.392 89.3381 32.392Z" fill="#141414"/>
<path d="M120.675 10.792C121.603 10.792 122.451 10.904 123.219 11.128L122.019 18.472C121.059 18.248 120.291 18.136 119.715 18.136C118.211 18.136 117.059 18.664 116.259 19.72C115.491 20.744 114.883 22.296 114.435 24.376V37H106.851V11.512H113.475L114.099 16.456C114.675 14.696 115.539 13.32 116.691 12.328C117.875 11.304 119.203 10.792 120.675 10.792Z" fill="#141414"/>
<path d="M147.512 1.38399V37H140.792L140.408 34.024C138.616 36.552 136.2 37.816 133.16 37.816C129.991 37.816 127.575 36.6 125.911 34.168C124.279 31.736 123.463 28.408 123.463 24.184C123.463 21.592 123.895 19.272 124.759 17.224C125.623 15.176 126.84 13.576 128.408 12.424C130.008 11.272 131.832 10.696 133.88 10.696C136.312 10.696 138.328 11.496 139.928 13.096V0.567993L147.512 1.38399ZM135.512 32.248C137.272 32.248 138.744 31.288 139.928 29.368V18.376C139.32 17.64 138.695 17.096 138.055 16.744C137.447 16.392 136.743 16.216 135.943 16.216C134.535 16.216 133.415 16.872 132.583 18.184C131.751 19.496 131.335 21.512 131.335 24.232C131.335 27.208 131.687 29.288 132.391 30.472C133.127 31.656 134.168 32.248 135.512 32.248Z" fill="#141414"/>
<path d="M164.485 10.696C168.389 10.696 171.445 11.896 173.653 14.296C175.861 16.664 176.965 19.992 176.965 24.28C176.965 27 176.453 29.384 175.429 31.432C174.437 33.448 172.997 35.016 171.109 36.136C169.253 37.256 167.045 37.816 164.485 37.816C160.613 37.816 157.557 36.632 155.317 34.264C153.109 31.864 152.005 28.52 152.005 24.232C152.005 21.512 152.501 19.144 153.493 17.128C154.517 15.08 155.957 13.496 157.813 12.376C159.701 11.256 161.925 10.696 164.485 10.696ZM164.485 16.264C162.949 16.264 161.797 16.92 161.029 18.232C160.261 19.512 159.877 21.512 159.877 24.232C159.877 27.016 160.245 29.048 160.981 30.328C161.749 31.608 162.917 32.248 164.485 32.248C166.021 32.248 167.173 31.608 167.941 30.328C168.709 29.016 169.093 27 169.093 24.28C169.093 21.496 168.709 19.464 167.941 18.184C167.205 16.904 166.053 16.264 164.485 16.264Z" fill="#141414"/>
</svg>
